# xmcd
#
# Track frame offsets:
#	150
#	20647
#	33634
#	46959
#	67040
#	84024
#	103029
#	120211
#	136860
#	154932
#	180824
#	194839
#	204688
#	220199
#	228344
#	258154
#
# Disc length: 3654 seconds
#
# Revision: 3
# Processed by: cddbd v1.5.2PL0 Copyright (c) Steve Scherf et al.
# Submitted via: EZCDAudioConverter 2.1.7.1
#
DISCID=d60e4410
DTITLE=V/A - Jazz On A Summer's Day
DYEAR=1900
DGENRE=
TTITLE0=Jimmy Giuffre Trio - Train And The River
TTITLE1=Thelonius Monk - Blue Monk
TTITLE2=Sonny Stitt - Loose Walk
TTITLE3=Anita O'Day - Sweet Georgia Brown
TTITLE4=Anita O'Day - Tea For Two
TTITLE5=Dinah Washington - All Of Me
TTITLE6=Gerry Mulligan - Catch As Catch Can
TTITLE7=Big Maybelle - I Ain't Mad At You
TTITLE8=Chuck Berry - Sweet Little Sixteen
TTITLE9=Chico Hamilton Quintet - Blue Sands
TTITLE10=Louis Armstrong - Up A Lazy River
TTITLE11=Louis Armstrong - Tiger Rag
TTITLE12=Louis Armstrong - Rockin' Chair
TTITLE13=Louis Armstrong - When The Saints Go Marching In
TTITLE14=Mahalia Jackson - Walk All Over God's Heaven - Didn't It Rain
TTITLE15=Mahalia Jackson - The Lord's Prayer
EXTD=
EXTT0=
EXTT1=
EXTT2=
EXTT3=
EXTT4=
EXTT5=
EXTT6=
EXTT7=
EXTT8=
EXTT9=
EXTT10=
EXTT11=
EXTT12=
EXTT13=
EXTT14=
EXTT15=
PLAYORDER=
